{"title":"Predators.2010.RUSSIAN.CAMRip.XViD-RELiZLAB","uid":5679579,"size":1523999940,"categoryP":"video","categoryS":"movies","magnet":"?xt=urn:btih:bc32249537f089ddaf1c831e95915acdaa565cb5&amp;dn=Predators.2010.RUSSIAN.CAMRip.XViD-RELiZLAB&amp;tr=udp%3A%2F%2Ftracker.openbittorrent.com%3A80&amp;tr=udp%3A%2F%2Fopen.demonii.com%3A1337&amp;tr=udp%3A%2F%2Ftracker.coppersurfer.tk%3A6969&amp;tr=udp%3A%2F%2Fexodus.desync.com%3A6969","seeders":0,"leechers":0,"uploader":"johnnyrep","files":1,"time":1278732398,"description":"============================\nRUSSIAN AUDIO\n============================\n\nPredators.2010.RUS.CAMRip.XViD-RELiZLAB\n\n\nGeneral\nComplete name : Predators.2010.RUS.CAMRip.XViD-RELiZLAB.avi\nFormat : AVI\nFormat/Info : Audio Video Interleave\nFile size : 1.42 GiB\nDuration : 1h 41mn\nOverall bit rate : 2 008 Kbps\nWriting library : VirtualDub-MPEG2 build 24586/release\n\nVideo\nID : 0\nFormat : MPEG-4 Visual\nFormat profile : AdvancedSimple@L5\nFormat settings, BVOP : Yes\nFormat settings, QPel : No\nFormat settings, GMC : No warppoints\nFormat settings, Matrix : Default (H.263)\nMuxing mode : Packed bitstream\nCodec ID : XVID\nCodec ID/Hint : XviD\nDuration : 1h 41mn\nBit rate : 1 806 Kbps\nWidth : 712 pixels\nHeight : 260 pixels\nDisplay aspect ratio : 2.738\nFrame rate : 25.000 fps\nResolution : 24 bits\nColorimetry : 4:2:0\nScan type : Progressive\nBits/(Pixel*Frame) : 0.390\nStream size : 1.28 GiB (90%)\nWriting library : XviD 1.2.1 (UTC 2008-12-04)\n\nAudio---RUSSIAN\nID : 1\nFormat : MPEG Audio\nFormat version : Version 1\nFormat profile : Layer 3\nFormat settings, Mode : Joint stereo / MS Stereo\nCodec ID : 55\nCodec ID/Hint : MP3\nDuration : 1h 41mn\nBit rate mode : Constant\nBit rate : 192 Kbps\nChannel(s) : 2 channels\nSampling rate : 48.0 KHz\nResolution : 16 bits\nStream size : 139 MiB (10%)\nAlignment : Split accross interleaves\nInterleave, duration : 40 ms (1.00 video frame)\nInterleave, preload duration : 500 ms","torrent":{"xt":"urn:btih:bc32249537f089ddaf1c831e95915acdaa565cb5","amp;dn":"Predators.2010.RUSSIAN.CAMRip.XViD-RELiZLAB","amp;tr":["udp%3A%2F%2Ftracker.openbittorrent.com%3A80","udp%3A%2F%2Fopen.demonii.com%3A1337","udp%3A%2F%2Ftracker.coppersurfer.tk%3A6969","udp%3A%2F%2Fexodus.desync.com%3A6969"],"infoHash":"bc32249537f089ddaf1c831e95915acdaa565cb5","infoHashBuffer":{"type":"Buffer","data":[188,50,36,149,55,240,137,221,175,28,131,30,149,145,90,205,170,86,92,181]},"announce":[],"urlList":[]}}